<svg width="100" height="38" viewBox="0 0 100 38" fill="none" xmlns="http://www.w3.org/2000/svg">
<path fill-rule="evenodd" clip-rule="evenodd" d="M28.799 12.4959C28.8104 13.2172 28.72 14.1228 28.639 14.7819C28.6074 15.039 28.5644 15.2529 28.5184 15.4286C29.5472 17.3141 30 19.5825 30 22.0592C30 24.9948 28.5752 27.412 26.3566 29.0604C24.1583 30.6937 21.1927 31.5732 18 31.5732C14.8073 31.5732 11.8417 30.6937 9.64344 29.0604C7.42472 27.412 6 24.9948 6 22.0592C6 19.5825 6.45278 17.3141 7.48166 15.4286C7.43557 15.2529 7.39266 15.0389 7.36106 14.7819C7.28008 14.1228 7.1896 13.2172 7.20097 12.4959C7.21379 11.6831 7.32098 10.8705 7.43986 10.0643C7.49483 9.69142 7.58212 9.34082 7.9906 9.11926C8.40786 8.89293 8.84729 8.97731 9.28078 9.09896C10.743 9.50928 12.1138 10.0848 13.4016 10.7767C14.7594 10.3724 16.294 10.1668 18 10.1668C19.706 10.1668 21.2406 10.3724 22.5984 10.7767C23.8861 10.0848 25.257 9.50928 26.7192 9.09896C27.1528 8.97731 27.5922 8.89293 28.0094 9.11926C28.4179 9.34082 28.5052 9.69142 28.5601 10.0643C28.679 10.8705 28.7862 11.6831 28.799 12.4959ZM27.6 22.0592C27.6 20.0527 27.1346 17.3023 24.6 17.3023C23.4574 17.3023 22.3769 17.5998 21.2969 17.8973C20.2178 18.1944 19.1394 18.4915 18 18.4915C16.8606 18.4915 15.7822 18.1944 14.7032 17.8973C13.6231 17.5998 12.5426 17.3023 11.4 17.3023C8.87255 17.3023 8.4 20.0609 8.4 22.0592C8.4 24.1566 9.39294 25.9017 11.0831 27.1574C12.7936 28.4283 15.2281 29.1947 18 29.1947C20.7719 29.1947 23.2063 28.4282 24.9169 27.1574C26.6071 25.9017 27.6 24.1566 27.6 22.0592ZM15.6 22.6539C15.6 24.2958 14.7941 25.627 13.8 25.627C12.8059 25.627 12 24.2958 12 22.6539C12 21.0119 12.8059 19.6807 13.8 19.6807C14.7941 19.6807 15.6 21.0119 15.6 22.6539ZM22.2 25.627C23.1941 25.627 24 24.2958 24 22.6539C24 21.0119 23.1941 19.6807 22.2 19.6807C21.2059 19.6807 20.4 21.0119 20.4 22.6539C20.4 24.2958 21.2059 25.627 22.2 25.627Z" fill="black"/>
<path fill-rule="evenodd" clip-rule="evenodd" d="M62.4348 29.851H57.6348V21.5043C57.6348 19.2146 56.6184 17.9371 54.7956 17.9371C52.812 17.9371 51.6348 19.2683 51.6348 21.5043V29.851H46.8348V14.3478H51.6348V16.0912C51.6348 16.0912 53.1408 13.4651 56.5344 13.4651C59.9292 13.4651 62.4348 15.5238 62.4348 19.7836V29.851ZM41.3652 11.8684C39.7464 11.8684 38.4348 10.5543 38.4348 8.93362C38.4348 7.31414 39.7464 6 41.3652 6C42.9828 6 44.2944 7.31414 44.2944 8.93362C44.2956 10.5543 42.9828 11.8684 41.3652 11.8684ZM38.4348 29.851H44.4348V14.3478H38.4348V29.851Z" fill="black"/>
<path fill-rule="evenodd" clip-rule="evenodd" d="M73.4347 15.5447C73.4758 15.5683 73.5159 15.5947 73.5548 15.6237L80.9948 21.1689C80.9948 21.1689 80.9948 21.1689 80.9948 21.169C81.8482 21.805 83.0214 21.805 83.8748 21.169C83.8748 21.169 83.8748 21.1689 83.8748 21.1689L91.3148 15.6236C91.3537 15.5946 91.3938 15.5683 91.4349 15.5447C91.2584 15.4432 91.0534 15.3851 90.8348 15.3851H74.0348C73.8162 15.3851 73.6112 15.4432 73.4347 15.5447ZM92.0348 18.0683L85.3148 23.077L85.3148 23.077C83.6081 24.3491 81.2615 24.3491 79.5548 23.077L79.5548 23.077L72.8348 18.0684V28.5031C72.8348 29.1618 73.3721 29.6957 74.0348 29.6957H90.8348C91.4976 29.6957 92.0348 29.1618 92.0348 28.5031V18.0683ZM70.4348 16.5776C70.4348 14.6018 72.0466 13 74.0348 13H90.8348C92.823 13 94.4348 14.6018 94.4348 16.5776V28.5031C94.4348 30.479 92.823 32.0808 90.8348 32.0808H74.0348C72.0466 32.0808 70.4348 30.479 70.4348 28.5031V16.5776Z" fill="black"/>
</svg>
